# xmcd
#
# Track frame offsets:
#	150
#	10779
#	22460
#	35130
#	46541
#	59833
#	71972
#	83389
#	93640
#	107207
#	118106
#	129186
#	140125
#	151839
#	164141
#
# Disc length: 2259
#
# Revision: 1
# Processed by: cddbd v1.5.1PL0 Copyright (c) Steve Scherf et al.
# Submitted via: dBpowerAMP V4.0
# Normalized: r0:TDELIM( - )
#
DISCID=d808d10f
DTITLE=Jelly Bean - We'll Travel
DYEAR=2004
DGENRE=Rock and Roll
TTITLE0=Track01 Jelly Bean - Big Feet
TTITLE1=Track02 Jelly Bean - Gone Gone Gone
TTITLE2=Track03 Jelly Bean - Wow Wow Baby
TTITLE3=Track04 Jelly Bean - Rockin' N A Flyin'
TTITLE4=Track05 Jelly Bean - Matchbox
TTITLE5=Track06 Jelly Bean - Rockabilly Boogie
TTITLE6=Track07 Jelly Bean - Bottle To The Baby
TTITLE7=Track08 Jelly Bean - Cool Rockin' Daddy
TTITLE8=Track09 Jelly Bean - Boogie Chillun
TTITLE9=Track10 Jelly Bean - Over and Over
TTITLE10=Track11 Jelly Bean - I Love To Boogie
TTITLE11=Track12 Jelly Bean - Hey Mr Cotton Picker
TTITLE12=Track13 Jelly Bean - The Shotgun Boogie
TTITLE13=Track14 Jelly Bean - Pick A Bale O Cotton
TTITLE14=Track15 Jelly Bean - When Will I Be Loved
EXTD=
EXTT0=
EXTT1=
EXTT2=
EXTT3=
EXTT4=
EXTT5=
EXTT6=
EXTT7=
EXTT8=
EXTT9=
EXTT10=
EXTT11=
EXTT12=
EXTT13=
EXTT14=
PLAYORDER=
